<svg xmlns="http://www.w3.org/2000/svg" viewBox="0 0 17.6 21.62"><defs><style>.a{fill:#2a2a2a;fill-rule:evenodd}</style></defs><title>icon-marker</title><path class="a" d="M8.8 0A8.84 8.84 0 0 0 0 8.86c0 4.75 7.93 12 8.27 12.28l.53.48.53-.48c.34-.31 8.27-7.53 8.27-12.28A8.84 8.84 0 0 0 8.8 0zm0 19.44C6.38 17.14 1.6 12 1.6 8.86a7.2 7.2 0 1 1 14.4 0c0 3.14-4.78 8.28-7.2 10.58zm0-14.88a3.65 3.65 0 1 0 3.62 3.64A3.64 3.64 0 0 0 8.8 4.56zm0 5.73a2.08 2.08 0 1 1 2.07-2.09 2.08 2.08 0 0 1-2.07 2.08z"/></svg>