<svg xmlns="http://www.w3.org/2000/svg" viewBox="0 0 17.6 17.6"><defs><style>.a{fill:#2a2a2a}</style></defs><title>icon-instagram</title><path class="a" d="M17.55 5.17A6.48 6.48 0 0 0 17.14 3a4.31 4.31 0 0 0-1-1.56 4.3 4.3 0 0 0-1.56-1 6.46 6.46 0 0 0-2.15-.39C11.49 0 11.19 0 8.8 0S6.11 0 5.17.05A6.46 6.46 0 0 0 3 .46a4.3 4.3 0 0 0-1.56 1A4.29 4.29 0 0 0 .46 3a6.43 6.43 0 0 0-.41 2.17C0 6.11 0 6.41 0 8.8s0 2.69.05 3.63a6.43 6.43 0 0 0 .41 2.14 4.3 4.3 0 0 0 1 1.56 4.32 4.32 0 0 0 1.56 1 6.46 6.46 0 0 0 2.14.41c.94 0 1.24.05 3.63.05s2.69 0 3.63-.05a6.46 6.46 0 0 0 2.14-.41 4.5 4.5 0 0 0 2.57-2.57 6.48 6.48 0 0 0 .41-2.14c0-.94.05-1.24.05-3.63s0-2.68-.04-3.62zM16 12.36a4.88 4.88 0 0 1-.3 1.63 2.91 2.91 0 0 1-1.7 1.67 4.89 4.89 0 0 1-1.63.3c-.93 0-1.21.05-3.56.05S6.17 16 5.24 16a4.89 4.89 0 0 1-1.63-.3A2.91 2.91 0 0 1 1.94 14a4.88 4.88 0 0 1-.3-1.63c0-.93-.05-1.21-.05-3.56s0-2.63.05-3.56a4.88 4.88 0 0 1 .3-1.63 2.73 2.73 0 0 1 .66-1 2.72 2.72 0 0 1 1-.66 4.87 4.87 0 0 1 1.63-.3c.93 0 1.21-.05 3.56-.05s2.63 0 3.56.05a4.87 4.87 0 0 1 1.63.3 2.73 2.73 0 0 1 1 .66 2.73 2.73 0 0 1 .66 1A4.88 4.88 0 0 1 16 5.24c0 .93.05 1.21.05 3.56S16 11.43 16 12.36zM8.8 4.28a4.52 4.52 0 1 0 4.52 4.52A4.52 4.52 0 0 0 8.8 4.28zm0 7.45a2.93 2.93 0 1 1 2.93-2.93 2.93 2.93 0 0 1-2.93 2.93zM13.5 3a1.06 1.06 0 1 0 1.05 1.1A1.06 1.06 0 0 0 13.5 3z"/></svg>