<?xml version="1.0" encoding="utf-8"?>
<!-- Generator: Adobe Illustrator 24.0.1, SVG Export Plug-In . SVG Version: 6.00 Build 0)  -->
<svg version="1.1" id="Layer_1" xmlns="http://www.w3.org/2000/svg" xmlns:xlink="http://www.w3.org/1999/xlink" x="0px" y="0px"
	 viewBox="0 0 287.1 60.5" style="enable-background:new 0 0 287.1 60.5;" xml:space="preserve">
<style type="text/css">
	.st0{display:none;fill:#FB2C1F;}
	.st1{fill:#FB2C1F;}
</style>
<title>logo-alphatek</title>
<path class="st0" d="M51.6,0h7.7c0.6,0,1.2,0.5,1.2,1.1V48c0,0.6-0.5,1.2-1.2,1.2h-7.7c-0.6,0-1.2-0.5-1.2-1.2V1.1
	C50.5,0.5,51,0,51.6,0z"/>
<path class="st0" d="M208.9,40.2c-0.1-0.4-0.5-0.6-0.9-0.5c0,0-0.1,0-0.1,0c-1.2,0.6-2.6,1-4,1c-1,0.1-1.9-0.4-2.5-1.2
	c-0.6-1.1-0.9-2.4-0.8-3.6V20.1h8.3c0.5,0,0.9-0.4,0.9-0.9c0,0,0,0,0,0v-6.4c0-0.5-0.4-0.9-0.9-0.9l0,0h-8.3V1.8
	c0-0.8-0.6-1.4-1.4-1.3c-0.1,0-0.2,0-0.2,0l-6.9,1.8c-0.8,0.2-1.4,1-1.4,1.8v7.8h-3.3c-0.6,0-1.1,0.5-1.1,1.1c0,0,0,0,0,0v6.1
	c0,0.6,0.5,1.1,1.1,1.1h3.3v17.2c0,4.1,0.9,7.2,2.9,9.2c2,2.1,4.9,3.3,7.8,3.2c1.9,0,3.8-0.2,5.6-0.6c1.2-0.3,2.3-0.8,3.4-1.3
	c0.5-0.2,0.7-0.8,0.6-1.3L208.9,40.2z M141.1,14.7c-1.2-1.2-2.7-2.1-4.3-2.6c-1.8-0.6-3.7-0.9-5.6-0.8h-0.1c-3.9,0-8.6,1.4-11.4,4.2
	V1.1c0-0.6-0.5-1.1-1.1-1.1h-7.7c-0.6,0-1.2,0.5-1.2,1.1c0,0,0,0,0,0V48c0,0.6,0.5,1.2,1.2,1.2l0,0h7.7c0.6,0,1.2-0.5,1.2-1.1v0
	V30.2c0-3.3,0.8-5.8,2.3-7.5c1.4-1.6,3.5-2.5,5.7-2.5c2.5,0,4.3,0.7,5.5,2s1.8,3.7,1.8,7V48c0,0.6,0.5,1.1,1.1,1.2h7.7
	c0.6,0,1.1-0.5,1.1-1.2V26.7c0.1-2.4-0.3-4.9-1-7.2C143.5,17.7,142.5,16.1,141.1,14.7z M286.9,47.1l-11.9-20c-0.3-0.4-0.2-1,0.1-1.4
	l9.8-11c0.7-0.8,0.6-2-0.1-2.7c-0.4-0.3-0.8-0.5-1.3-0.5h-6.9c-0.3,0-0.6,0.1-0.9,0.4l-13,14.6h-0.1V1.1c0-0.6-0.5-1.1-1.1-1.1h-7.7
	c-0.6,0-1.1,0.5-1.1,1.1v46.6c0,0.6,0.5,1.1,1.1,1.2h7.7c0.6,0,1.1-0.5,1.1-1.2v-7.3c0-0.3,0.1-0.6,0.3-0.8l5-5.6h0.1l8.5,14.3
	c0.2,0.4,0.6,0.6,1,0.6h8.5c0.6,0,1.1-0.6,1.1-1.2C287.1,47.5,287,47.3,286.9,47.1L286.9,47.1z M102.2,18.9c-1-1.6-2.3-2.9-3.8-4.1
	c-1.5-1.2-3.1-2.1-4.9-2.7c-1.8-0.6-3.7-0.9-5.7-0.9c-0.8,0-1.5,0.1-2.3,0.1c-3.5,0.3-6.7,1.8-9.2,4.3v-2.3c0-0.8-0.7-1.5-1.5-1.5
	l0,0h-7c-0.8,0-1.5,0.7-1.5,1.5c0,0,0,0,0,0V59c0,0.8,0.7,1.5,1.5,1.5l0,0h7c0.8,0,1.5-0.7,1.5-1.5V45.4c1.4,1.4,3,2.5,4.9,3.2
	c2,0.8,4.1,1.3,6.3,1.2c2.5,0,4.9-0.5,7.2-1.4c2.1-0.9,4.1-2.2,5.7-3.9c1.6-1.8,2.9-3.8,3.7-6.1c0.9-2.5,1.4-5.2,1.3-7.9
	c0-2.2-0.3-4.3-0.9-6.4C104.2,22.3,103.3,20.5,102.2,18.9z M92.7,38c-1.8,1.9-4.3,2.9-6.9,2.8c-1.7,0-3.5-0.4-5-1.2
	c-1.5-0.8-2.7-2.1-3.5-3.6c-0.9-1.6-1.3-3.5-1.3-5.3c0-1.4,0.2-2.8,0.7-4.2c0.4-1.2,1.1-2.4,2-3.3c0.9-0.9,1.9-1.7,3.1-2.2
	c1.3-0.6,2.6-0.8,4-0.8c2.6-0.1,5.1,1,6.8,2.9c1.9,2.1,2.9,4.8,2.7,7.6C95.5,33.4,94.5,36,92.7,38z M28.9,1
	c-0.2-0.5-0.6-0.8-1.1-0.8h-8.8c-0.5,0-0.9,0.3-1.1,0.8L0.1,47.5c-0.2,0.6,0.1,1.3,0.7,1.5C0.9,49,1,49,1.1,49h8.6
	c0.5,0,0.9-0.3,1.1-0.8l3.6-10.1h17.9l3.7,10.1c0.2,0.5,0.6,0.8,1.1,0.8h8.6c0.6,0,1.2-0.5,1.2-1.1c0-0.1,0-0.3-0.1-0.4L28.9,1z
	 M17.8,29l5.6-15.8L29.1,29H17.8z M240.2,13.9c-2.9-1.7-6.2-2.5-9.6-2.4c-2.5,0-5,0.5-7.3,1.4c-2.2,0.9-4.2,2.2-5.9,3.9
	c-1.7,1.8-3,3.8-3.9,6.1c-1,2.5-1.4,5.1-1.4,7.8c-0.1,3.5,0.8,7,2.5,10.1c1.6,2.9,4,5.2,6.9,6.8c3,1.6,6.4,2.4,9.8,2.4
	c3.3,0.1,6.5-0.6,9.4-1.9c2.1-1,4.1-2.3,5.7-4c0.5-0.6,0.5-1.5-0.1-2l-4.4-4.2c-0.5-0.5-1.4-0.5-1.9,0c-2.1,2.1-5,3.3-8.1,3.2
	c-2.2,0-4.3-0.6-6-1.9c-1.7-1.3-2.9-3.1-3.4-5.2h24.9c0.7,0,1.3-0.6,1.4-1.3c0-0.6,0.1-1.4,0.1-2.3c0.1-3.4-0.7-6.7-2.3-9.7
	C245.2,17.8,243,15.4,240.2,13.9z M222.6,26.7c0.4-1.9,1.5-3.6,3.1-4.8c1.5-1.1,3.4-1.7,5.3-1.7c1.9-0.1,3.7,0.5,5.2,1.7
	c1.4,1.3,2.4,2.9,2.8,4.8L222.6,26.7z M167.5,11.1c-2.1,0-4.3,0.2-6.4,0.6c-1.8,0.3-3.5,0.7-5.2,1.3c-0.9,0.3-2,0.8-2.9,1.2
	c-0.6,0.3-0.8,0.9-0.6,1.5c0,0,0,0,0,0l2.8,5.4c0.3,0.6,1,0.8,1.6,0.5c0.8-0.3,1.6-0.7,2.4-0.9c1.2-0.4,2.4-0.7,3.6-0.9
	c1.2-0.2,2.3-0.3,3.5-0.3c3.8,0,5.9,1.8,6.4,5.3c-4.9,0-10.3,0.5-14.4,1.9l-0.3,0.1l-0.7,0.3c-0.4,0.2-0.8,0.3-1.2,0.5l-0.1,0.1
	c-1,0.5-1.9,1.1-2.8,1.8c-2.5,2.1-3.6,4.5-3.6,8.3c-0.2,3.2,1,6.3,3.2,8.6c2.2,2.2,5.3,3.2,9.4,3.2c3.9,0,7.7-1.4,10.6-3.9h0.2v2.1
	c0,0.6,0.5,1.2,1.2,1.2c0,0,0,0,0,0h7.5c0.6,0,1.2-0.5,1.2-1.1c0,0,0,0,0,0V26.8c0-5.4-1.4-9.4-4.1-12S172.5,11,167.5,11.1z
	 M173,35.5v0.2c-0.1,2.3-2.4,5-6.6,5.7c-0.5,0.1-1,0.1-1.4,0.1c-1.4,0.1-2.7-0.3-3.8-1.2c-1.7-1.6-1.8-4.2-0.2-5.9
	c0.1-0.1,0.2-0.2,0.3-0.3l0.1-0.1l0.2-0.1c2.3-1.5,5.8-2.7,11.5-2.7L173,35.5z"/>
<title>logo-alphatek-vertical</title>
<g>
	<path class="st1" d="M63.9,50l-15.7,0l-4.3-5.1c-0.1-0.2-1-1.2-2.5-3.1c-1.6-1.9-2.6-3.2-3.1-3.9c-2.3,3.2-4.3,5.7-5.7,7.5L28.8,50
		l-15.5,0l17.2-21.1L14,9.4l15.6,0l2.8,3.4c1.6,2,3.5,4.4,5.7,7.4c2.1-3.1,3.8-5.4,5.1-6.9l3.2-3.8l15.4,0L46.1,28.9L63.9,50z"/>
	<path class="st1" d="M108.9,9.4L93,31.4L93,50l-12.2,0l0-18.4L64.6,9.4l12.7,0l9.3,12.8l9.3-12.8L108.9,9.4z"/>
	<path class="st1" d="M141,38.2c0,2.5-0.6,4.7-1.9,6.6s-3.1,3.3-5.4,4.3c-2.3,1-5,1.5-8,1.5c-0.8,0-1.9-0.1-3.1-0.2
		c-1.2-0.1-2.8-0.4-4.9-0.9s-4.1-1.2-6.3-2.2l0-10c2.1,1.3,4.1,2.3,6,3.2s4.1,1.3,6.4,1.3c2.1,0,3.4-0.3,4.1-1
		c0.6-0.7,0.9-1.3,0.9-1.9c0-1.1-0.5-2-1.6-2.8c-1.1-0.8-2.6-1.5-4.6-2.3c-2.2-0.9-4.2-2-5.9-3.1c-1.7-1.1-3.1-2.5-4.1-4.1
		c-1.1-1.7-1.6-3.6-1.6-5.9c0-2.2,0.5-4.2,1.6-5.9c1.1-1.8,2.7-3.2,4.9-4.2s4.9-1.6,8.1-1.6c2.3,0,4.4,0.2,6.3,0.7s3.5,0.9,4.8,1.5
		c1.2,0.5,2.1,1,2.6,1.3v9.5c-1.7-1.2-3.5-2.3-5.6-3.2s-4.2-1.4-6.5-1.4c-1.5,0-2.6,0.3-3.3,0.9s-1,1.3-1,2.2c0,0.8,0.3,1.5,1,2.1
		s1.9,1.3,3.7,2.1c3.1,1.5,5.6,2.8,7.5,4c1.9,1.2,3.3,2.5,4.4,4.1C140.5,34,141,35.9,141,38.2z"/>
	<path class="st1" d="M180.2,50l-30.8,0l0-40.6l12.2,0l0,30.9l18.6,0V50z"/>
	<path class="st1" d="M231,50l-12.5,0l-3.3-8.2l-17.6,0l-3.4,8.2l-12.5,0l18-40.6l13.5,0L231,50z M212.4,34.7l-5.9-14.8l-6,14.8
		L212.4,34.7z"/>
	<path class="st1" d="M273.5,38.5c0,3.5-1.2,6.3-3.6,8.4c-2.4,2.1-5.7,3.1-10,3.1l-23.5,0l0-40.6l19.6,0c2.5,0,4.8,0.2,6.6,0.7
		c1.9,0.5,3.4,1.2,4.6,2c1.2,0.8,2,1.9,2.6,3c0.6,1.2,0.8,2.4,0.8,3.8c0,1.5-0.3,2.9-0.9,4.1s-1.3,2.3-2.2,3.1
		c-0.9,0.8-1.7,1.4-2.6,1.7c2.8,1.1,4.9,2.5,6.3,4.1C272.8,33.7,273.5,35.8,273.5,38.5z M259.2,21.1c0-2-0.6-3.3-1.9-3.9s-3.3-1-6-1
		l-2.6,0V26l2.6,0c2.8,0,4.8-0.3,6-1S259.2,23.1,259.2,21.1z M261.2,38c0-3.5-2.5-5.2-7.6-5.2h-5l0,10.4h5
		C258.7,43.2,261.2,41.5,261.2,38z"/>
</g>
</svg>
