<?xml version="1.0" encoding="utf-8"?>
<!-- Generator: Adobe Illustrator 24.0.1, SVG Export Plug-In . SVG Version: 6.00 Build 0)  -->
<svg version="1.1" id="Layer_1" xmlns="http://www.w3.org/2000/svg" xmlns:xlink="http://www.w3.org/1999/xlink" x="0px" y="0px"
	 viewBox="0 0 60.5 287.1" style="enable-background:new 0 0 60.5 287.1;" xml:space="preserve">
<title>logo-alphatek-vertical</title>
<title>logo-alphatek-vertical</title>
<g>
	<path d="M50.3,223.5v15.7l-5.1,4.3c-0.2,0.1-1.2,1-3.1,2.5c-1.9,1.6-3.2,2.6-3.9,3.1c3.2,2.3,5.7,4.3,7.5,5.7l4.6,3.7v15.5
		l-21.1-17.2L9.7,273.3v-15.6l3.4-2.8c2-1.6,4.4-3.5,7.4-5.7c-3.1-2.1-5.4-3.8-6.9-5.1l-3.8-3.2v-15.4l19.5,15.8L50.3,223.5z"/>
	<path d="M9.7,178.5l22,15.9h18.6v12.2H31.9L9.7,222.8v-12.7l12.8-9.3l-12.8-9.3V178.5z"/>
	<path d="M38.5,146.4c2.5,0,4.7,0.6,6.6,1.9s3.3,3.1,4.3,5.4s1.5,5,1.5,8c0,0.8-0.1,1.9-0.2,3.1c-0.1,1.2-0.4,2.8-0.9,4.9
		s-1.2,4.1-2.2,6.3h-10c1.3-2.1,2.3-4.1,3.2-6s1.3-4.1,1.3-6.4c0-2.1-0.3-3.4-1-4.1c-0.7-0.6-1.3-0.9-1.9-0.9c-1.1,0-2,0.5-2.8,1.6
		c-0.8,1.1-1.5,2.6-2.3,4.6c-0.9,2.2-2,4.2-3.1,5.9c-1.1,1.7-2.5,3.1-4.1,4.1c-1.7,1.1-3.6,1.6-5.9,1.6c-2.2,0-4.2-0.5-5.9-1.6
		c-1.8-1.1-3.2-2.7-4.2-4.9s-1.6-4.9-1.6-8.1c0-2.3,0.2-4.4,0.7-6.3s0.9-3.5,1.5-4.8c0.5-1.2,1-2.1,1.3-2.6h9.5
		c-1.2,1.7-2.3,3.5-3.2,5.6s-1.4,4.2-1.4,6.5c0,1.5,0.3,2.6,0.9,3.3s1.3,1,2.2,1c0.8,0,1.5-0.3,2.1-1s1.3-1.9,2.1-3.7
		c1.5-3.1,2.8-5.6,4-7.5s2.5-3.3,4.1-4.4C34.3,146.9,36.2,146.4,38.5,146.4z"/>
	<path d="M50.3,107.2v30.8H9.7v-12.2h30.9v-18.6H50.3z"/>
	<path d="M50.3,56.3v12.5l-8.2,3.3v17.6l8.2,3.4v12.5l-40.6-18V74.2L50.3,56.3z M35,75L20.2,81L35,87V75z"/>
	<path d="M38.8,13.9c3.5,0,6.3,1.2,8.4,3.6s3.1,5.7,3.1,10V51H9.7V31.3c0-2.5,0.2-4.8,0.7-6.6c0.5-1.9,1.2-3.4,2-4.6s1.9-2,3-2.6
		c1.2-0.6,2.4-0.8,3.8-0.8c1.5,0,2.9,0.3,4.1,0.9s2.3,1.3,3.1,2.2c0.8,0.9,1.4,1.7,1.7,2.6c1.1-2.8,2.5-4.9,4.1-6.3
		S36.1,13.9,38.8,13.9z M21.4,28.2c-2,0-3.3,0.6-3.9,1.9s-1,3.3-1,6v2.6h9.7v-2.6c0-2.8-0.3-4.8-1-6S23.4,28.2,21.4,28.2z
		 M38.3,26.2c-3.5,0-5.2,2.5-5.2,7.6v5h10.4v-5C43.5,28.7,41.8,26.2,38.3,26.2z"/>
</g>
</svg>
